<svg width="464" height="131" viewBox="0 0 464 131" fill="none" xmlns="http://www.w3.org/2000/svg">
<path d="M32.24 54.56C9.68 54.56 0.159998 41.44 0.159998 27.92C0.159998 13.2 10.64 -2.57492e-05 32 -2.57492e-05C52.96 -2.57492e-05 60.56 10.48 60.56 19.92C60.56 20.24 60.56 20.96 60.48 21.92H55.52C55.6 21.04 55.6 20.56 55.6 20.08C55.6 12.72 49.36 4.63997 32 4.63997C14.16 4.63997 5.44 15.44 5.44 28C5.44 39.52 13.76 49.92 32.24 49.92C48.72 49.92 55.92 41.12 55.92 33.52V33.2H29.2V28.96H61.2V53.6H56.24C56.32 50.8 56.56 46.08 56.72 41.2H56.64C54 49.84 44.56 54.56 32.24 54.56ZM73.025 53.6V0.959971H120.705V5.59997H78.225V24.96H112.705V29.28H78.225V48.96H121.505V53.6H73.025ZM152.977 53.6V5.59997H127.537V0.959971H183.697V5.59997H158.257V53.6H152.977ZM-1.60933e-06 129.6V76.96H20V129.6H-1.60933e-06ZM27.725 129.6V76.96H55.405L76.205 104H76.285L76.125 76.96H93.645V129.6H70.445L45.085 96.64H44.925L45.245 129.6H27.725ZM140.773 129.6V91.6H122.213V76.96H179.333V91.6H160.773V129.6H140.773ZM216.409 130.56C191.929 130.56 181.129 119.04 181.129 103.04C181.129 88.24 192.009 76 216.409 76C240.729 76 251.609 88.24 251.609 103.04C251.609 118.24 241.529 130.56 216.409 130.56ZM216.409 116.48C226.249 116.48 230.569 111.04 230.569 103.12C230.569 95.68 226.009 90.08 216.409 90.08C206.809 90.08 202.169 95.68 202.169 103.12C202.169 111.36 206.729 116.48 216.409 116.48ZM288.851 130.56C269.091 130.56 257.091 122.8 257.091 105.68V76.96H277.251V103.52C277.251 111.68 282.371 114.88 290.531 114.88C298.691 114.88 303.731 111.68 303.731 103.52V76.96H320.451V105.68C320.451 122.8 308.691 130.56 288.851 130.56ZM359.892 130.56C334.212 130.56 325.972 116.96 325.972 103.36C325.972 87.68 337.172 76 359.813 76C383.813 76 391.173 88.64 391.173 97.92C391.173 98.24 391.173 99.04 391.093 99.52H374.133V99.2C374.133 94.72 370.053 90.08 361.173 90.08C351.972 90.08 347.012 95.68 347.012 103.36C347.012 110.72 351.333 116.48 361.252 116.48C369.733 116.48 374.293 112.72 374.293 107.52V107.12H391.253C391.333 107.68 391.333 108.32 391.333 108.48C391.333 119.12 383.333 130.56 359.892 130.56ZM397.256 129.6V76.96H417.256V95.36H443.256V76.96H463.176V129.6H443.256V109.92H417.256V129.6H397.256Z" fill="#0347FF"/>
</svg>
